<?xml version="1.0" encoding="UTF-8" standalone="no"?>
<svg
   xmlns:dc="http://purl.org/dc/elements/1.1/"
   xmlns:cc="http://creativecommons.org/ns#"
   xmlns:rdf="http://www.w3.org/1999/02/22-rdf-syntax-ns#"
   xmlns:svg="http://www.w3.org/2000/svg"
   xmlns="http://www.w3.org/2000/svg"
   id="svg28"
   version="1.1"
   viewBox="0 0 133.183 135.45599"
   height="135.45599mm"
   width="133.183mm">
  <defs
     id="defs22" />
  <metadata
     id="metadata25">
    <rdf:RDF>
      <cc:Work
         rdf:about="">
        <dc:format>image/svg+xml</dc:format>
        <dc:type
           rdf:resource="http://purl.org/dc/dcmitype/StillImage" />
        <dc:title></dc:title>
      </cc:Work>
    </rdf:RDF>
  </metadata>
  <g
     id="layer1">
    <path
       id="path164"
       d="m 14.384966,135.04458 c -2.53142,-0.51792 -6.3321196,-2.4592 -8.2983696,-4.23856 -1.86983,-1.6921 -3.97574,-4.71829 -4.80217,-6.90069 -1.36745004,-3.61114 -1.32898004,-1.81965 -1.25541004,-58.465805 l 0.0685,-52.696923 0.64144,-0.68276 0.64143004,-0.682759 h 9.4788796 9.47888 V 6.461939 1.546795 L 21.111536,0.773397 21.884936,0 h 54.906636 54.906638 l 0.74236,0.638563 0.74235,0.638563 v 59.355703 c 0,55.765391 -0.0281,59.459721 -0.46437,61.075491 -1.40654,5.20909 -4.82397,9.44811 -9.46325,11.73832 -4.385,2.16469 -0.34733,2.02272 -56.836788,1.99844 -42.449486,-0.0182 -50.466776,-0.08 -52.033496,-0.4005 z m 6.68345,-4.4742 c 5.12639,-1.20867 9.18785,-5.3299 10.26619,-10.41729 0.31212,-1.4725 0.37211,-10.83935 0.37597,-58.703621 l 0.005,-56.951553 h -3.43958 -3.43958 v 57.264983 c 0,61.575251 0.058,58.823181 -1.31369,62.303251 -0.74775,1.89706 -2.20662,4.14514 -3.66379,5.64581 -1.33909,1.37907 -1.25411,1.43937 1.20988,0.85842 z m 97.102074,0 c 5.28777,-1.24672 9.51733,-5.72665 10.36514,-10.97873 0.18751,-1.16157 0.27827,-20.119775 0.27962,-58.406761 l 0.002,-56.686973 H 82.519242 36.221226 l -0.071,57.877599 c -0.0666,54.309135 -0.0996,57.975465 -0.53586,59.465095 -0.76783,2.62191 -2.43118,5.70381 -4.03412,7.47448 l -1.497,1.65364 43.215426,-0.004 c 37.167358,-0.003 43.447228,-0.0586 44.871788,-0.39444 z M 45.208926,108.34686 v -2.24896 h 37.173956 37.173948 v 2.24896 2.24896 H 82.382882 45.208926 Z m 0,-8.995835 v -2.24895 h 37.173956 37.173948 v 2.24895 2.248955 H 82.382882 45.208926 Z m 0,-8.99583 v -2.24896 h 37.173956 37.173948 v 2.24896 2.24896 H 82.382882 45.208926 Z m 0,-8.99583 v -2.24896 h 37.173956 37.173948 v 2.24896 2.24896 H 82.382882 45.208926 Z m 1.154659,-9.43758 c -0.310819,-0.1505 -0.697773,-0.56476 -0.859896,-0.92058 -0.204899,-0.44971 -0.294763,-4.96243 -0.294763,-14.801726 V 42.044694 l 0.649429,-0.64943 0.64943,-0.64943 h 14.517987 14.51799 l 0.57529,0.61236 0.57529,0.61237 v 14.480905 14.480906 l -0.64944,0.64943 -0.64943,0.64943 -14.23338,-0.0179 c -9.225414,-0.0116 -14.432218,-0.11418 -14.798507,-0.29154 z M 72.196422,56.488539 V 45.243754 H 60.951632 49.706838 v 11.244785 11.244786 h 11.244794 11.24479 z m 13.75833,13.493746 v -2.24896 h 16.801038 16.80104 v 2.24896 2.24895 H 102.75579 85.954752 Z m 0,-8.995836 v -2.24895 h 16.801038 16.80104 v 2.24895 2.248956 H 102.75579 85.954752 Z m 0,-8.995825 v -2.24896 h 16.801038 16.80104 v 2.24896 2.248955 H 102.75579 85.954752 Z m 0,-8.99583 v -2.24896 h 16.801038 16.80104 v 2.24896 2.24896 H 102.75579 85.954752 Z M 40.711006,33.866662 v -2.11666 h 41.804166 41.804158 v 2.11666 2.11667 H 82.515172 40.711006 Z m 7.454452,-7.49153 c -0.563427,-0.59974 -0.575286,-0.77094 -0.575286,-8.30506 0,-7.179811 0.03372,-7.734344 0.505764,-8.317323 l 0.505762,-0.624624 33.642834,-0.06914 33.642838,-0.06915 0.78789,0.787888 0.78789,0.787888 -0.0776,7.705471 -0.0776,7.70548 -0.62462,0.50547 c -0.60754,0.49164 -1.54501,0.50547 -34.283558,0.50547 H 48.740747 Z m 64.776792,-8.38458 v -4.499026 l -30.493228,0.06726 -30.493225,0.06726 -0.07254,4.431776 -0.07254,4.43177 H 82.376492 112.94226 Z M 13.871986,128.87276 c 2.79085,-1.60078 5.48927,-5.40232 6.17461,-8.69882 0.20646,-0.99309 0.29149,-16.40991 0.29149,-52.850515 V 15.874999 h -7.942 -7.9419996 l 0.0707,52.056766 0.0707,52.056755 0.70718,1.82015 c 0.87118,2.24225 2.29831,4.35113 3.89938,5.76212 1.0419596,0.91826 2.7689396,2.03093 3.1986496,2.06085 0.0728,0.005 0.73488,-0.33643 1.47139,-0.75887 z"
       style="fill:#ffffff;stroke-width:0.264583" />
  </g>
</svg>
